<svg width="366" height="368" viewBox="0 0 366 368" fill="none" xmlns="http://www.w3.org/2000/svg">
<g clip-path="url(#clip0_2_5)">
<path d="M211.58 1.34263e-05C210.521 -0.0231866 209.376 0.239217 207.925 0.730757L47.1254 47.9468C45.7874 48.2594 45.8651 48.6201 46.9792 49.4817L189.719 163.432C192.347 165.611 193.584 165.881 197.247 164.747L357.307 109.273C360.98 107.924 361.235 107.595 357.454 105.107L216.974 2.34706C214.805 0.818659 213.33 0.0422447 211.565 0.00834472L211.58 1.34263e-05ZM193.235 13.814C196.437 13.7908 199.817 14.1423 203.321 14.9103C217.337 17.9833 227.277 26.5483 225.467 33.9863C223.657 41.4242 210.832 44.9533 196.816 41.8798C182.8 38.8067 172.86 30.3148 174.67 22.8768C176.028 17.2982 183.629 13.8612 193.234 13.8138L193.235 13.814ZM102.605 41.369C105.807 41.3458 109.26 41.6972 112.764 42.4654C126.78 45.5384 136.647 54.0304 134.837 61.4684C133.027 68.9065 120.202 72.5084 106.186 69.4351C92.17 66.3621 82.303 57.7971 84.113 50.3591C85.4707 44.7805 92.9985 41.4165 102.604 41.3691L102.605 41.369ZM239.935 48.3854C243.137 48.3622 246.59 48.7867 250.094 49.5549C264.11 52.6277 273.977 61.1199 272.167 68.5579C270.357 75.9959 257.532 79.5249 243.516 76.4514C229.5 73.3785 219.633 64.8864 221.443 57.4484C222.801 51.8701 230.328 48.4328 239.935 48.3854ZM37.045 57.2292C36.7515 57.304 36.6567 57.7626 36.4603 58.6911L0.208293 240.021C-0.214057 241.907 -0.139913 242.375 1.59699 243.895L139.297 362.595C142.5 365.656 143.173 365.617 143.609 361.864L183.735 177.974C184.576 175.469 183.71 174.09 182.273 172.931L38.5034 58.1209C37.7634 57.4966 37.3352 57.1694 37.0416 57.2437L37.045 57.2292ZM148.875 77.9132C152.077 77.89 155.53 78.2414 159.034 79.0097C173.05 82.0827 182.917 90.5747 181.107 98.0127C179.297 105.451 166.472 108.98 152.456 105.906C138.44 102.833 128.573 94.3414 130.383 86.9034C131.741 81.3247 139.269 77.9608 148.874 77.9133L148.875 77.9132ZM287.675 83.9796C290.877 83.9564 294.33 84.3078 297.834 85.0759C311.85 88.149 321.717 96.6409 319.907 104.079C318.097 111.517 305.272 115.119 291.256 112.046C277.24 108.973 267.373 100.408 269.183 92.9697C270.541 87.3914 278.069 84.0272 287.675 83.9796ZM45.965 90.6306C46.5051 90.5769 47.0964 90.6012 47.646 90.6306C54.2417 90.9798 61.384 97.1612 65.553 107.076C71.1113 120.295 69.2582 135.131 61.46 140.185C53.6618 145.239 42.826 138.64 37.268 125.421C31.7097 112.202 33.5626 97.3656 41.361 92.3116C42.8231 91.3639 44.3449 90.7911 45.965 90.6306ZM196.605 114.458C199.807 114.435 203.26 114.786 206.764 115.554C220.78 118.627 230.647 127.119 228.837 134.557C227.027 141.995 214.202 145.524 200.186 142.451C186.17 139.378 176.303 130.886 178.113 123.448C179.471 117.869 186.998 114.505 196.604 114.458L196.605 114.458ZM364.785 119.501C364.478 119.564 364.046 119.672 363.543 119.866L199.162 176.886C195.814 178.265 195.915 178.827 195.362 181.345L155.309 364.655C155.173 367.353 154.179 368.581 157.355 367.14L319.325 306.622C322.468 305.118 323.071 304.854 323.418 301.798L365.444 121.048C365.793 119.775 365.708 119.321 364.787 119.513L364.785 119.501ZM338.108 149.248C342.736 149.323 346.368 151.574 347.975 155.899C351.188 164.549 345.001 178.393 334.088 186.815C323.176 195.237 311.72 195.026 308.507 186.376C305.294 177.727 311.482 163.882 322.394 155.459C327.85 151.248 333.48 149.173 338.108 149.248ZM138.868 165.108C145.547 165.279 152.833 171.556 157.067 181.626C162.625 194.845 160.845 209.681 153.047 214.735C145.249 219.789 134.413 213.117 128.855 199.898C123.297 186.679 125.15 171.916 132.948 166.862C134.41 165.914 135.932 165.341 137.553 165.181C137.992 165.135 138.423 165.096 138.868 165.108ZM80.178 186.304C86.8568 186.474 94.143 192.753 98.377 202.822C103.935 216.041 102.155 230.877 94.3571 235.931C86.5589 240.985 75.7231 234.313 70.1651 221.094C64.6068 207.875 66.4599 193.112 74.2581 188.058C75.7202 187.11 77.2422 186.537 78.8626 186.377C79.3015 186.331 79.7328 186.292 80.178 186.304ZM22.365 207.28C22.9049 207.226 23.4963 207.252 24.0459 207.28C30.6416 207.629 37.7109 213.883 41.8799 223.798C47.4382 237.017 45.6583 251.78 37.8601 256.834C30.0618 261.888 19.2261 255.289 13.6681 242.07C8.1098 228.851 9.9628 214.015 17.7611 208.961C19.2233 208.013 20.7449 207.44 22.365 207.28ZM276.425 224.821C280.954 224.968 284.564 227.215 286.146 231.472C289.359 240.122 283.098 253.966 272.186 262.388C261.274 270.81 249.818 270.599 246.605 261.949C243.391 253.3 249.652 239.455 260.565 231.033C265.339 227.349 270.206 225.296 274.452 224.894C275.134 224.829 275.778 224.8 276.425 224.821ZM112.195 283.512C112.735 283.458 113.326 283.484 113.876 283.512C120.472 283.861 127.614 290.042 131.783 299.957C137.341 313.176 135.488 328.012 127.69 333.066C119.892 338.12 109.129 331.521 103.571 318.302C98.0127 305.083 99.7926 290.247 107.591 285.193C109.053 284.245 110.575 283.672 112.195 283.512ZM209.476 302.515C214.105 302.59 217.736 304.768 219.343 309.093C222.556 317.742 216.369 331.587 205.456 340.009C194.544 348.431 183.088 348.293 179.875 339.643C176.662 330.994 182.849 317.149 193.762 308.726C199.218 304.515 204.848 302.44 209.476 302.515Z" fill="#00008B"/>
</g>
<defs>
<clipPath id="clip0_2_5">
<rect width="365.63" height="367.74" fill="white"/>
</clipPath>
</defs>
</svg>
